<?xml version="1.0" encoding="UTF-8"?>
<svg width="40px" height="40px" viewBox="0 0 40 40" version="1.1" xmlns="http://www.w3.org/2000/svg" xmlns:xlink="http://www.w3.org/1999/xlink">
    <!-- Generator: Sketch 64 (93537) - https://sketch.com -->
    <title>Rectangle</title>
    <desc>Created with Sketch.</desc>
    <g id="Page-1" stroke="none" stroke-width="1" fill="none" fill-rule="evenodd">
        <g id="Artboard" transform="translate(-124.000000, -83.000000)">
            <g id="Group" transform="translate(124.000000, 83.000000)">
                <g id="Android" transform="translate(7.000000, 5.000000)" fill="#A4C439" fill-rule="nonzero">
                    <path d="M1.89288005,10.7028444 C0.842206544,10.7028444 0,11.5332936 0,12.5510009 L0,20.3018602 C0,21.3277092 0.850545224,22.1500168 1.89288005,22.1500168 C2.94355356,22.1500168 3.78576011,21.3195676 3.78576011,20.3018602 L3.78576011,12.5510009 C3.78576011,11.5332936 2.93521488,10.7028444 1.89288005,10.7028444 M17.177678,3.74172597 L18.5035279,1.3806449 C18.5702373,1.25852003 18.5285439,1.10382848 18.4034637,1.03055354 C18.2783836,0.965420261 18.11161,1.00612856 18.0449006,1.13639512 L16.710712,3.52190118 C15.5849904,3.03340163 14.3258499,2.75658525 12.9916613,2.75658525 C11.6658114,2.75658525 10.4066709,3.02526 9.28928799,3.51375952 L7.95509943,1.13639512 C7.88838999,1.01427025 7.72161642,0.965420292 7.59653626,1.03055354 C7.47145609,1.09568679 7.42142401,1.25852 7.48813342,1.3806449 L8.81398333,3.74172597 C6.21231561,5.05253307 4.45285441,7.54388068 4.45285441,10.4097446 L21.5304682,10.4097446 C21.5304682,7.54388068 19.7793457,5.05253304 17.177678,3.74172597 M9.10583707,7.38918917 C8.71391918,7.38918917 8.38871072,7.07980614 8.38871072,6.68900652 C8.38871072,6.30634855 8.7055805,5.98882384 9.10583707,5.98882384 C9.49775496,5.98882384 9.82296345,6.30634852 9.82296345,6.68900652 C9.82296345,7.07166448 9.50609367,7.38918917 9.10583707,7.38918917 M16.8858243,7.38918917 C16.4939064,7.38918917 16.1686979,7.07980614 16.1686979,6.68900652 C16.1686979,6.30634855 16.4855676,5.98882384 16.8858243,5.98882384 C17.2777421,5.98882384 17.6029506,6.30634852 17.6029506,6.68900652 C17.6029506,7.07166448 17.2777421,7.38918917 16.8858243,7.38918917 M4.51956381,11.0529357 L4.51956381,23.0700242 C4.51956381,24.1610066 5.42014112,25.0484474 6.54586275,25.0484474 L7.92174471,25.0484474 L7.92174471,29.1518434 C7.92174471,30.1695508 8.77228993,31 9.81462477,31 C10.8652983,31 11.7075048,30.1695508 11.7075048,29.1437018 L11.7075048,25.0403057 L14.2674791,25.0403057 L14.2674791,29.1437018 C14.2674791,30.1614092 15.1180244,30.9918584 16.1603592,30.9918583 C17.2110327,30.9918583 18.0532392,30.1614091 18.0532392,29.1437018 L18.0532392,25.0403057 L19.4374599,25.0403057 C20.5548428,25.0403057 21.4637588,24.1610065 21.4637588,23.0618826 L21.4637588,11.044794 L4.51956381,11.0529357 Z M26,12.5510009 C26,11.5251519 25.1494548,10.7028444 24.1071199,10.7028444 C23.0564464,10.7028444 22.2142399,11.5332936 22.2142399,12.5510009 L22.2142399,20.3018602 C22.2142399,21.3277092 23.0647851,22.1500168 24.1071199,22.1500168 C25.1577935,22.1500168 26,21.3195676 26,20.3018602 L26,12.5510009 Z" id="Shape"></path>
                </g>
                <g id="key" transform="translate(18.000000, 24.000000)" fill="#000000" fill-rule="nonzero">
                    <path d="M4.36363636,6.00000001 C3.56363635,6.00000001 2.9090909,5.32499999 2.9090909,4.50000001 C2.9090909,3.67500001 3.56363635,3.00000001 4.36363636,3.00000001 C5.16363636,3.00000001 5.81818181,3.67500001 5.81818181,4.50000001 C5.81818181,5.32499999 5.16363636,6.00000001 4.36363636,6.00000001 M8.47272726,3 C7.87636364,1.25249999 6.26181818,0 4.36363636,0 C1.95636363,0 0,2.01749999 0,4.5 C0,6.98250001 1.95636363,9 4.36363636,9 C6.26181818,9 7.87636364,7.74750001 8.47272726,6 L11.6363636,6 L11.6363636,9 L14.5454545,9 L14.5454545,6 L16,6 L16,3 L8.47272726,3 Z" id="Shape"></path>
                </g>
                <rect id="Rectangle" x="0" y="0" width="40" height="40"></rect>
            </g>
        </g>
    </g>
</svg>